<?xml version="1.0" encoding="utf-8"?>
<!-- Generator: Adobe Illustrator 25.0.0, SVG Export Plug-In . SVG Version: 6.00 Build 0)  -->
<svg version="1.1" id="Layer_1" xmlns="http://www.w3.org/2000/svg" xmlns:xlink="http://www.w3.org/1999/xlink" x="0px" y="0px"
	 viewBox="0 0 413.1 205.5" style="enable-background:new 0 0 413.1 205.5;" xml:space="preserve">
<style type="text/css">
	.st0{fill:url(#SVGID_1_);}
</style>
<linearGradient id="SVGID_1_" gradientUnits="userSpaceOnUse" x1="206.5483" y1="205.5225" x2="206.5483" y2="0">
	<stop  offset="0" style="stop-color:#57C959"/>
	<stop  offset="1" style="stop-color:#1BB01E"/>
</linearGradient>
<path class="st0" d="M413.1,75V37h-43.5v-8.5V0h-55v12.3c0,8.9-7.2,16.2-16.2,16.2H234h-55h-64.4c-8.9,0-16.2-7.2-16.2-16.2V0h-55
	v28.5V37H0v38h43.5v13.4H0v38h44.9c7.7,44.9,46.9,79.2,93.9,79.2c26.5,0,50.5-10.9,67.8-28.4c17.3,17.5,41.3,28.4,67.8,28.4
	c47,0,86.2-34.3,93.9-79.2h44.9v-38h-43.5V75H413.1z M138.8,150.5c-22.2,0-40.3-18.1-40.3-40.3V83.5H179v26.7
	C179,132.5,161,150.5,138.8,150.5z M314.6,110.3c0,22.2-18.1,40.3-40.3,40.3S234,132.5,234,110.3V83.5h80.5V110.3z"/>
</svg>
